<?xml version="1.0" encoding="utf-8"?>
<!-- Generator: Adobe Illustrator 24.3.0, SVG Export Plug-In . SVG Version: 6.00 Build 0)  -->
<svg version="1.1" xmlns="http://www.w3.org/2000/svg" xmlns:xlink="http://www.w3.org/1999/xlink" x="0px" y="0px"
	 viewBox="0 0 980 260" style="enable-background:new 0 0 980 260;" xml:space="preserve">
<style type="text/css">
	.st0{clip-path:url(#SVGID_2_);}
	.st1{fill:#FFFFFF;}
	.st2{fill:#015CAB;}
	.st3{clip-path:url(#SVGID_2_);fill:#015CAB;}
</style>
<g id="레이어_2">
</g>
<g id="레이어_1">
	<g>
		<defs>
			<circle id="SVGID_1_" cx="130" cy="130.1" r="110"/>
		</defs>
		<clipPath id="SVGID_2_">
			<use xlink:href="#SVGID_1_"  style="overflow:visible;"/>
		</clipPath>
		<g class="st0">
			<circle class="st1" cx="127.5" cy="130" r="109.5"/>
			<path class="st1" d="M127.5,21c29.1,0,56.5,11.3,77.1,31.9s31.9,48,31.9,77.1s-11.3,56.5-31.9,77.1s-48,31.9-77.1,31.9
				S71,227.7,50.4,207.1s-31.9-48-31.9-77.1s11.3-56.5,31.9-77.1S98.4,21,127.5,21 M127.5,20c-60.8,0-110,49.2-110,110
				s49.2,110,110,110s110-49.2,110-110S188.3,20,127.5,20L127.5,20z"/>
		</g>
		<g class="st0">
			<path class="st2" d="M156.5,66.3c-2.5-1.2-6.5-1.2-8.9,0l-35.1,17.5c-2.5,1.2-6.7,2.2-9.5,2.2H69c-2.8,0-5,2.3-5,5v78
				c0,2.8,2.3,5,5,5h166c2.8,0,5-2.3,5-5v-78c0-2.8-2.3-5-5-5h-34c-2.8,0-7-1-9.5-2.2L156.5,66.3z"/>
		</g>
		<g class="st0">
			<path class="st1" d="M113.5,108.1c0,0-8.3,0-8.3,15.6v31.2h16.5v-31.2C121.8,123.6,121.8,108.1,113.5,108.1z"/>
			<path class="st1" d="M138.3,108.1c0,0-8.3,0-8.3,15.6v31.2h16.5v-31.2C146.5,123.6,146.5,108.1,138.3,108.1z"/>
			<path class="st1" d="M165.8,108.1c0,0-8.3,0-8.3,15.6v31.2H174v-31.2C174,123.6,174,108.1,165.8,108.1z"/>
			<path class="st1" d="M193.3,108.1c0,0-8.3,0-8.3,15.6v31.2h16.5v-31.2C201.5,123.6,201.5,108.1,193.3,108.1z"/>
		</g>
		<g class="st0">
			<path class="st1" d="M60.3,201.6h18.3v-18.3c0,0,18.3,0,18.3-18.3c0,0-18.3-73.3-27.5-73.3c0,0-27.5,55-27.5,73.3
				c0,0,0,18.3,18.3,18.3V201.6z"/>
			<path class="st1" d="M97,201.6h9.2v-18.3c0,0,18.3,0,18.3-18.3c0,0-18.3-55-22.9-55c0,0-22.9,48.1-22.9,55c0,0,0,18.3,18.3,18.3
				V201.6z"/>
		</g>
		<polygon class="st3" points="163,174.1 127.3,240.1 50.1,240.1 127.3,174.1 		"/>
		<g class="st0">
			<path class="st1" d="M218,201.6h-16.5v-16.5c0,0-16.5,0-16.5-16.5c0,0,16.5-66,24.8-66c0,0,24.8,49.5,24.8,66
				c0,0,0,16.5-16.5,16.5V201.6z"/>
			<path class="st1" d="M185,201.6h-8.3v-16.5c0,0-16.5,0-16.5-16.5c0,0,16.5-49.5,20.6-49.5c0,0,20.6,43.3,20.6,49.5
				c0,0,0,16.5-16.5,16.5V201.6z"/>
		</g>
	</g>
	<path class="st1" d="M363.9,59.9h-69.4c0,0-11.6,0-11.6,11.7v116.7c0,0,0,11.7,11.6,11.7h23.1v-65.6c0-4.4,11.6-4.4,11.6-4.4
		c11.6,0,11.6,4.4,11.6,4.4v65.6h23.1c0,0,11.6,0,11.6-11.7V71.5C375.5,71.5,375.5,59.9,363.9,59.9z"/>
	<path class="st1" d="M916.3,94.9H960V71.5c0,0,0-11.7-11.7-11.7h-69.9c0,0-11.7,0-11.7,11.7v70h43.7c2.9,0,2.9,11.7,2.9,11.7
		c0,11.7-2.9,11.7-2.9,11.7h-43.7v23.3c0,0,0,11.7,11.7,11.7h69.9c0,0,11.7,0,11.7-11.7v-70h-43.7c-2.9,0-2.9-11.7-2.9-11.7
		C913.4,94.9,916.3,94.9,916.3,94.9z"/>
	<path class="st1" d="M850.2,59.9h-23.1v62.9c0,4.2-11.6,4.2-11.6,4.2c-11.6,0-11.6-4.2-11.6-4.2V59.9h-23.1c0,0-11.6,0-11.6,11.7
		v116.7c0,0,0,11.7,11.6,11.7h69.4c0,0,11.6,0,11.6-11.7V71.5C861.8,71.5,861.8,59.9,850.2,59.9z"/>
	<path class="st1" d="M540.5,118.2h30V71.5c0,0,0-11.7-11.6-11.7h-23.4v43.7c0,2.9-11.7,2.9-11.7,2.9c-11.7,0-11.7-2.9-11.7-2.9
		V59.9h-22.7c0,0-11.6,0-11.6,11.7v46.7h29.4c2,0,2,11.7,2,11.7c0,11.7-2,11.7-2,11.7H478v46.7c0,0,0,11.7,11.6,11.7h22.7v-43.7
		c0-2.9,11.7-2.9,11.7-2.9c11.7,0,11.7,2.9,11.7,2.9v43.7h23.4c0,0,11.6,0,11.6-11.7v-46.7h-30c-2,0-2-11.7-2-11.7
		C538.5,118.2,540.5,118.2,540.5,118.2z"/>
	<path class="st1" d="M752.7,59.9h-69.3c0,0-11.6,0-11.6,11.7v116.8c0,0,0,11.7,11.6,11.7h58.4v-65.4c22.5,0,22.5-10.1,22.5-10.1
		v-53C764.3,71.5,764.3,59.9,752.7,59.9z M728,109.4c-13.8,0-13.8-15.1-13.8-15.1c0-15.1,13.8-15.1,13.8-15.1
		c13.8,0,13.8,15.1,13.8,15.1C741.8,109.4,728,109.4,728,109.4z"/>
	<path class="st1" d="M668,71.5c0,0,0-11.7-11.6-11.7h-69.4c0,0-11.6,0-11.6,11.7v41.5c2.7,5.6,8.9,11.9,22.8,11.9l0.5,75h46
		l0.5-74.8c13.8,0,20-6.3,22.7-11.9"/>
	<path class="st1" d="M472.1,165h-41.7c-3.7,0-7.1-2.1-8.9-5.6c-1.7-3.4-2.4-8.1,0.9-14c1.9-3.3,5.2-5.3,8.7-5.3h41
		c0.3,0,0.6,0,0.9,0V120c-0.3,0-0.6,0-0.9,0h-41.7c-3.7,0-7.1-2.1-8.9-5.6c-1.7-3.4-2.4-8.1,0.9-14c1.5-2.6,3.9-4.4,6.6-5
		c0.4-0.4,0.7-0.4,0.7-0.4H473V95c0,0,0,0,0,0V71.5c0,0,0-11.7-11.6-11.7h-69.4c0,0-11.6,0-11.6,11.7v116.7c0,0,0,11.7,11.6,11.7
		h69.4c0,0,11.6,0,11.6-11.7V165C472.7,165,472.4,165,472.1,165z"/>
</g>
</svg>
