<?xml version="1.0" standalone="yes"?>
<svg width="320" height="85">
<path style="fill:#000000; stroke:none;" d="M0 0L0 85L320 85L320 0L0 0z"/>
<path style="fill:#015cab; stroke:none;" d="M33 36L29 44C27.432 39.1033 26.5406 27.8435 20 33C22.1582 25.8906 29.2225 28.8585 35 27.6096C39.8512 26.5608 44.0351 22.3636 49 22.0278C53.557 21.7195 57.8603 25.5955 62 27.034C66.4029 28.5639 71.4072 28 76 28C62.0153 -5.36002 10.0876 1.57283 6.17361 38C5.1206 47.8004 7.73689 58.4137 14.213 65.9992C16.2483 68.3832 19.4346 72.3883 23 71.7438C32.7716 69.9776 39.996 57.801 40 49C40.003 42.4306 41.3761 35.5416 33 36M104 66C104 61.954 101.666 44.7662 107.09 43.9213C113.187 42.9714 111 62.3501 111 66C128.053 65.9981 123 49.2303 123 36C123 28.8693 125.507 19.3158 115.999 19.0154C110.843 18.8525 97.476 16.7308 93.6034 20.6034C88.3516 25.8552 91.9967 47.7667 92 55C92.0013 57.8859 91.3481 62.1413 93.6034 64.3966C96.028 66.8212 100.887 65.9997 104 66M155 53C151.667 53 140.767 54.7279 139.346 50.7014C137.167 44.5298 152.116 46 155 46L155 39C152.116 39 137.167 40.4702 139.346 34.2986C140.767 30.2721 151.667 32 155 32C155 28.6768 155.981 23.1882 153.397 20.6034C150.07 17.2771 128.93 17.2771 125.603 20.6034C123.178 23.0292 124 27.8992 124 31C123.999 39.9948 123.835 49.007 124.005 58C124.186 67.6359 147.252 70.5412 153.397 64.3966C155.981 61.8117 155 56.3232 155 53M156 39L166 39L166 46L156 46C156 57.8757 153.832 65.9984 168 66L168 51L175 51L175 66C189.168 65.9984 187 57.8757 187 46L177 46L177 39L187 39C187 27.1243 189.168 19.0016 175 19L175 34L168 34L168 19C153.524 19.0016 156 26.6973 156 39M195 41L195 66L211 66L211 41L219 38C219 43.9712 216.185 59.9786 220.603 64.3966C224.583 68.3759 237.69 66 243 66L243 44C253.046 43.4434 253.596 20.1152 244.981 19.1088C232.358 17.6343 218.688 19 206 19C201.537 19 194.391 17.6657 190.318 19.7423C183.417 23.2604 187.6 40.166 195 41M270 19C270 22.5694 272.147 41.0224 266.09 40.0787C260.731 39.2439 263 22.9543 263 19C259.887 19.0003 255.028 18.1788 252.603 20.6034C247.352 25.8552 250.997 47.7667 251 55C251.001 57.8859 250.348 62.1414 252.603 64.3966C256.439 68.2323 269.888 66.2034 274.999 65.9807C284.226 65.5787 282 55.7965 282 49C282 35.7697 287.053 19.0019 270 19M283 47L298 47L298 53L283 53C283 56.3232 282.019 61.8118 284.603 64.3966C287.813 67.6063 310.046 67.8751 312.972 64.2577C316.803 59.5226 314 43.9888 314 38L299 38L299 32L314 32C314 28.9033 315.048 23.3075 312.972 20.7423C310.046 17.1249 287.813 17.3936 284.603 20.6034C280.185 25.0214 283 41.0288 283 47z"/>
<path style="fill:#ffffff; stroke:none;" d="M21 28L21 32L22 32L24 30L29 43L30 43L33 36C40.5807 37.0576 43.3853 50.0521 39.9329 56.7145C36.2215 63.8767 26.7147 66.6629 23 74L38.8951 78.7616L46.6914 70L53 35L57 41L58 41C60.3231 37.8178 62.0128 36.3825 66 37L67 34L69 34L77 53C79.7725 47.7851 81.1498 33.0463 75.4869 29.0278C72.2553 26.7346 66.7479 28.3363 63 27.034C58.5355 25.4826 53.9153 21.2905 49 21.6034C44.3968 21.8964 40.2688 25.5506 36 27.034C31.3155 28.6617 25.8887 28 21 28z"/>
<path style="fill:#000000; stroke:none;" d="M238 27.3457C233.722 27.415 233.582 34.3645 238 34.3642C242.415 34.3638 242.301 27.276 238 27.3457z"/>
<path style="fill:#4185c0; stroke:none;" d="M20 29L22 33L20 29z"/>
<path style="fill:#015cab; stroke:none;" d="M67 34L66 37L62 35L61 41L57 41L53 35C51.7648 39.179 50.4267 46.8775 54 50L42 79C55.2314 78.8905 74.9961 70.4021 76.3202 55C76.9146 48.0862 72.3026 39.8032 69 34L67 34M44 35L43 50L48 50C48 44.5293 49.4241 37.991 44 35z"/>
<path style="fill:#6099cb; stroke:none;" d="M60 37L58 40L61 41L60 37z"/>
<path style="fill:#508fc5; stroke:none;" d="M27.3333 38.6667L27.6667 39.3333L27.3333 38.6667z"/>
<path style="fill:#80aed5; stroke:none;" d="M42 38L42 51L43 51L42 38z"/>
<path style="fill:#4185c0; stroke:none;" d="M51 38C51 42.8675 49.6784 48.8833 54 52L51 38z"/>
<path style="fill:#508fc5; stroke:none;" d="M28.3333 41.6667L28.6667 42.3333L28.3333 41.6667z"/>
<path style="fill:#80aed5; stroke:none;" d="M29 43L30 44L29 43z"/>
<path style="fill:#4185c0; stroke:none;" d="M43 50L43 51L48 51L43 50z"/>
<path style="fill:#508fc5; stroke:none;" d="M40 52L40 58L41 58L40 52z"/>
<path style="fill:#5692c7; stroke:none;" d="M76.3333 52.6667L76.6667 53.3333L76.3333 52.6667z"/>
<path style="fill:#a0c2e0; stroke:none;" d="M52.3333 57.6667L52.6667 58.3333L52.3333 57.6667z"/>
<path style="fill:#80aed5; stroke:none;" d="M50 62L51 63L50 62z"/>
</svg>
