<svg id="Layer_1" data-name="Layer 1" xmlns="http://www.w3.org/2000/svg" viewBox="0 0 420 420"><defs><style>.cls-1{fill:#06579f;}</style></defs><path class="cls-1" d="M210,0C94,0,0,94,0,210S94,420,210,420s210-94,210-210S326,0,210,0Zm0,401.71c-105,0-190.12-85.12-190.12-190.13S105,21.46,210,21.46s190.13,85.12,190.13,190.12S315,401.71,210,401.71Z"/><path class="cls-1" d="M194,344.56a135.76,135.76,0,0,1,0-269.62V43.76a167.51,167.51,0,0,0,0,333.48Z"/><path class="cls-1" d="M226,43.76V74.94a135.76,135.76,0,0,1,0,269.62v32.68a167.51,167.51,0,0,0,0-333.48Z"/><path class="cls-1" d="M117.54,304.52V140.91s-1.49-24.48,22.63-24.48h59V304.52H175.5l.56-164.07-28.66.28s-6.68-.28-6.68,5.57-.55,158.22-.55,158.22Z"/><path class="cls-1" d="M280.12,116.43H222.8l-1.11,188.09H245.9l-.28-94.23,34.5.56c22.54,0,23.37-24.21,23.37-24.21V140.45C303.49,117.08,280.12,116.43,280.12,116.43Zm.28,64.37s-.09,6.4-5.84,6.4H245.62V140.45h29.77s5-.83,5,5.57Z"/></svg>