<?xml version="1.0" standalone="no"?>
<!DOCTYPE svg PUBLIC "-//W3C//DTD SVG 20010904//EN"
 "http://www.w3.org/TR/2001/REC-SVG-20010904/DTD/svg10.dtd">
<svg version="1.0" xmlns="http://www.w3.org/2000/svg"
 width="300.000000pt" height="250.000000pt" viewBox="0 0 300.000000 250.000000"
 preserveAspectRatio="xMidYMid meet">

<g transform="translate(0.000000,250.000000) scale(0.100000,-0.100000)"
fill="#000000" stroke="none">
<path d="M0 1250 l0 -1250 1500 0 1500 0 0 820 c0 491 -4 820 -9 820 -5 0 -16
3 -24 6 -10 3 -18 -2 -21 -14 -8 -23 -46 -69 -46 -55 0 5 9 20 20 33 20 23 27
50 12 50 -4 0 -25 -29 -46 -65 -21 -36 -42 -67 -47 -71 -12 -7 2 28 18 44 7 7
13 20 13 28 0 8 4 14 8 14 11 0 45 71 37 78 -7 8 -29 -22 -72 -100 -20 -37
-39 -66 -41 -63 -2 2 19 44 47 94 28 50 51 96 51 103 0 20 -48 -43 -60 -79 -7
-18 -15 -33 -20 -33 -4 0 -13 -14 -20 -30 -7 -17 -15 -29 -17 -26 -6 6 77 160
89 164 4 2 8 10 8 17 0 7 3 15 8 17 4 2 5 172 2 378 l-5 375 -3 -371 c-2 -345
-3 -373 -21 -395 -10 -13 -31 -49 -46 -79 -30 -59 -105 -169 -105 -154 0 5 15
32 33 59 45 68 103 174 112 205 7 29 -33 -32 -59 -88 -16 -34 -56 -90 -56 -78
0 4 23 48 50 98 28 50 50 95 50 100 0 6 -18 8 -39 6 -33 -3 -41 0 -45 16 -3
10 1 28 9 40 7 11 23 54 35 94 17 60 19 81 11 125 -13 71 -39 130 -53 121 -8
-5 -9 -1 -3 12 17 39 32 130 25 149 -5 13 -21 23 -48 28 -29 6 -42 14 -46 30
-3 12 -16 34 -29 50 l-24 27 -177 0 c-118 0 -176 -4 -176 -11 0 -18 20 -49 33
-49 7 0 18 -4 25 -9 12 -7 12 -12 0 -32 -21 -37 -49 -57 -107 -76 -49 -16 -55
-21 -79 -72 -14 -30 -43 -72 -64 -93 -30 -31 -37 -44 -32 -64 3 -13 10 -26 14
-29 13 -8 59 19 69 41 5 12 29 30 54 42 38 18 49 19 71 9 30 -14 42 -46 28
-74 -5 -10 -6 -44 -2 -78 4 -33 6 -62 4 -63 -8 -11 -25 45 -21 67 9 43 -6 58
-32 32 -16 -16 -21 -34 -22 -78 -1 -32 -1 -65 0 -73 3 -22 52 -114 67 -122 6
-4 18 -37 25 -73 7 -36 17 -65 22 -65 4 0 6 -8 3 -18 -3 -9 -2 -33 4 -52 13
-45 7 -48 -29 -12 -17 16 -33 27 -36 24 -9 -9 -6 -52 4 -52 5 0 9 -16 8 -35
-1 -34 -11 -47 -19 -23 -3 7 -21 -4 -44 -28 -38 -39 -44 -41 -118 -47 -91 -8
-142 -34 -206 -103 -23 -25 -39 -37 -36 -27 3 10 6 83 7 163 1 93 7 157 16
179 7 18 13 49 13 69 0 45 28 162 44 182 17 22 40 69 35 73 -2 2 -17 13 -33
25 -36 27 -50 28 -43 2 7 -25 -7 -34 -23 -15 -18 21 -51 19 -57 -5 -4 -15 -11
-18 -34 -13 -21 4 -30 1 -35 -11 -5 -13 -14 -15 -34 -11 -30 7 -181 -38 -198
-58 -6 -7 -13 -34 -17 -62 -4 -27 -11 -68 -17 -90 -6 -22 -13 -69 -17 -105
l-6 -65 -46 -3 c-51 -3 -67 9 -92 71 -12 29 -13 37 -3 37 20 0 43 56 37 93 0
4 -11 2 -23 -4 -22 -11 -22 -11 -7 7 26 31 24 99 -3 124 -15 14 -17 19 -6 15
24 -10 37 36 13 50 -43 25 -65 47 -58 58 4 7 8 25 9 40 2 21 -1 26 -10 18 -8
-7 -12 -4 -12 10 0 13 5 18 15 14 10 -4 9 0 -4 15 -19 20 -19 21 1 14 15 -5
16 -4 4 4 -26 19 -50 -21 -27 -44 8 -8 -11 -44 -23 -44 -6 0 -10 26 -10 58 l0
59 42 1 c23 1 50 5 60 8 36 11 406 -73 464 -106 17 -10 46 -21 63 -25 l31 -7
0 200 c0 109 3 227 6 261 l7 61 -37 0 -36 0 0 -154 c0 -84 -3 -181 -7 -215 -8
-86 -22 -90 -150 -45 -54 19 -111 41 -128 49 -16 8 -47 17 -67 20 -21 3 -38
11 -38 17 0 5 -6 8 -14 5 -7 -3 -18 -1 -23 4 -12 12 -73 48 -93 55 -13 4 -14
19 -9 87 4 45 4 103 1 130 l-5 47 -643 0 -644 0 0 -1250z m2748 1075 c4 -58
-10 -51 -26 13 -9 38 -8 43 6 40 13 -2 18 -16 20 -53z m-508 -60 c4 3 6 -5 3
-16 -6 -21 -7 -21 -20 -4 -15 21 -17 38 -5 49 4 4 8 -2 10 -13 2 -12 7 -19 12
-16z m293 10 c13 -18 15 -29 8 -37 -6 -7 -22 -27 -36 -45 -14 -18 -36 -35 -48
-39 -12 -4 -25 -12 -29 -18 -15 -23 -17 3 -3 37 15 36 31 54 18 20 -4 -10 -2
-14 4 -10 6 4 14 24 17 44 11 62 16 73 34 73 9 0 25 -12 35 -25z m-325 -57 c3
-16 -75 -85 -84 -75 -7 7 13 46 39 75 23 24 40 24 45 0z m416 -24 c9 -3 16
-10 16 -15 0 -6 -7 -6 -18 0 -12 6 -23 5 -36 -4 -10 -8 -25 -11 -34 -8 -12 5
-7 10 19 19 19 7 35 13 36 13 1 1 8 -2 17 -5z m156 -52 c0 -15 -2 -15 -10 -2
-13 20 -13 33 0 25 6 -3 10 -14 10 -23z m-1910 -65 l0 -84 -37 -1 c-47 -2 -63
12 -63 54 0 40 25 67 57 61 20 -4 23 0 23 24 0 16 5 29 10 29 6 0 10 -34 10
-83z m-567 36 l15 -38 18 38 c17 35 34 49 34 27 0 -6 -9 -28 -20 -50 -11 -22
-20 -53 -20 -70 0 -16 -4 -30 -10 -30 -5 0 -10 14 -10 30 0 17 -9 48 -20 70
-22 43 -25 60 -11 60 5 0 16 -17 24 -37z m169 -20 c37 -33 11 -103 -38 -103
-13 0 -30 10 -38 22 -43 61 22 130 76 81z m60 -30 c3 -44 5 -48 28 -48 23 0
25 4 28 48 4 67 22 59 22 -11 l0 -58 -37 -1 c-51 -2 -63 11 -63 68 0 63 18 64
22 2z m178 36 c0 -5 -6 -9 -14 -9 -17 0 -26 -22 -26 -66 0 -19 -4 -34 -10 -34
-6 0 -10 26 -10 58 0 59 0 59 30 60 17 0 30 -4 30 -9z m260 3 c0 -4 -9 -13
-20 -20 -15 -9 -20 -23 -20 -52 0 -22 -4 -40 -10 -40 -6 0 -10 26 -10 58 0 59
0 59 30 60 17 0 30 -2 30 -6z m100 -11 c20 -39 13 -51 -31 -51 -36 0 -40 -2
-29 -15 7 -8 23 -15 36 -15 13 0 24 -4 24 -10 0 -16 -57 -12 -74 6 -35 34 -8
104 40 104 13 0 28 -9 34 -19z m108 7 c7 -7 12 -33 12 -58 l0 -47 -40 -1 c-29
-1 -42 3 -47 14 -8 22 9 47 36 54 29 6 27 25 -2 26 -38 2 -42 4 -27 14 21 13
54 12 68 -2z m1242 -64 c-17 -15 -33 -24 -36 -21 -6 6 45 47 58 47 5 0 -5 -12
-22 -26z m238 -5 c2 -12 -13 -18 -65 -28 -112 -21 -115 -22 -109 -38 7 -17
-21 -63 -39 -63 -6 0 -17 11 -23 24 -10 22 -8 25 16 31 19 5 22 9 12 15 -11 7
-10 11 4 25 9 10 20 15 23 11 3 -3 13 0 21 6 15 13 117 38 142 35 8 -1 16 -9
18 -18z m-2361 -165 c-9 -9 -28 6 -21 18 4 6 10 6 17 -1 6 -6 8 -13 4 -17z
m183 -4 c0 -27 2 -30 25 -24 34 8 55 -11 55 -52 0 -42 -22 -64 -65 -62 l-35 1
0 84 c0 49 4 83 10 83 6 0 10 -14 10 -30z m181 7 c-13 -13 -26 -3 -16 12 3 6
11 8 17 5 6 -4 6 -10 -1 -17z m311 -59 c4 -92 4 -93 -11 -83 -13 8 -15 165 -2
165 5 0 11 -37 13 -82z m323 43 c-3 -5 4 -12 15 -16 11 -3 21 -13 21 -21 5
-50 5 -49 -34 -47 -20 1 -37 -3 -37 -8 0 -5 12 -9 28 -9 39 0 59 -15 35 -25
-10 -5 -22 -7 -27 -6 -4 1 -16 -4 -25 -11 -9 -7 -13 -8 -9 -4 5 5 -1 15 -12
23 -13 9 -20 26 -20 47 0 35 13 57 45 74 25 14 28 14 20 3z m-995 -80 c0 -38
-3 -76 -6 -85 -7 -17 -44 -22 -44 -6 0 6 7 10 15 10 12 0 15 15 15 75 0 43 4
75 10 75 6 0 10 -30 10 -69z m112 52 c36 -32 14 -103 -32 -103 -45 0 -66 65
-33 102 20 22 41 23 65 1z m248 -43 c0 -33 -4 -60 -10 -60 -6 0 -10 27 -10 60
0 33 4 60 10 60 6 0 10 -27 10 -60z m97 44 c2 -7 -6 -10 -22 -7 -34 7 -32 -12
3 -29 37 -18 42 -55 8 -64 -29 -7 -56 0 -56 15 0 6 13 8 30 5 19 -4 30 -2 30
4 0 7 -13 18 -30 27 -32 17 -38 33 -18 53 15 15 50 12 55 -4z m163 1 c0 -5
-10 -10 -21 -10 -12 0 -27 -8 -33 -17 -16 -26 5 -54 39 -51 34 3 28 -21 -7
-25 -33 -4 -58 21 -58 58 0 16 7 36 16 45 17 17 65 17 64 0z m174 -1 c19 -18
21 -75 4 -92 -17 -17 -54 -15 -72 4 -34 33 -10 104 34 104 10 0 26 -7 34 -16z
m105 1 c-1 -5 -10 -9 -21 -7 -26 5 -22 -13 7 -32 33 -22 33 -54 0 -62 -28 -7
-55 0 -55 15 0 6 13 8 30 5 19 -4 30 -2 30 4 0 7 -13 18 -30 27 -31 16 -41 49
-17 59 19 8 58 2 56 -9z m1243 -182 c13 -33 17 -143 5 -143 -5 0 -17 5 -28 10
-20 11 -26 65 -13 129 8 38 21 40 36 4z m-2062 -54 c0 -26 3 -29 20 -24 33 11
50 -12 50 -66 0 -63 -18 -64 -22 -1 -3 39 -6 47 -23 47 -17 0 -20 -8 -23 -47
-5 -81 -22 -53 -22 37 0 50 4 85 10 85 6 0 10 -14 10 -31z m-80 -4 c0 -8 7
-15 15 -15 8 0 15 -4 15 -10 0 -5 -7 -10 -15 -10 -11 0 -15 -11 -15 -40 0 -29
4 -40 15 -40 8 0 15 -5 15 -11 0 -6 -10 -9 -22 -7 -19 2 -24 10 -26 48 -2 24
-9 48 -15 53 -9 7 -9 10 1 14 6 2 12 11 12 19 0 8 5 14 10 14 6 0 10 -7 10
-15z m2430 2 c0 -16 -38 -62 -45 -55 -3 2 4 14 15 26 11 12 20 26 20 32 0 5 2
10 5 10 3 0 5 -6 5 -13z m-57 -31 c-19 -26 -51 -46 -36 -23 11 19 48 55 51 51
2 -1 -4 -14 -15 -28z m-2115 2 c7 -7 12 -33 12 -59 0 -51 -5 -54 -67 -43 -44
8 -22 64 25 64 15 0 22 5 19 13 -2 6 -16 11 -31 10 -27 -2 -36 11 -13 20 22 9
43 7 55 -5z m130 -1 c14 -11 17 -107 3 -107 -6 0 -11 21 -13 48 -3 39 -6 47
-23 47 -17 0 -20 -8 -23 -47 -4 -68 -22 -59 -22 10 l0 59 33 0 c17 0 38 -4 45
-10z m123 -37 l16 -42 13 46 c7 25 19 46 26 46 10 0 6 -20 -14 -77 -26 -73
-52 -107 -69 -89 -4 4 0 12 10 17 22 13 22 37 -3 94 -23 55 -24 58 -7 53 6 -3
19 -24 28 -48z m163 34 c34 -33 10 -104 -34 -104 -27 0 -50 27 -50 60 0 33 23
60 50 60 10 0 26 -7 34 -16z m68 -31 c3 -40 6 -48 23 -48 17 0 20 8 23 48 4
67 22 58 22 -12 l0 -59 -42 2 -43 1 -3 58 c-2 33 1 57 7 57 5 0 11 -21 13 -47z
m1727 0 c-23 -29 -39 -45 -39 -38 0 11 35 54 44 55 5 0 2 -8 -5 -17z m-99 -28
c-7 -9 -15 -13 -17 -11 -6 6 20 36 26 30 2 -2 -2 -10 -9 -19z m188 -5 c-7 -10
-14 -18 -15 -16 -6 6 9 36 18 36 5 0 4 -9 -3 -20z m-1021 -132 c-5 -138 -6
-142 -31 -161 -14 -10 -26 -29 -26 -41 0 -12 -20 -54 -45 -94 -25 -40 -45 -75
-45 -78 0 -12 -45 -42 -56 -37 -17 6 -5 139 16 188 27 59 42 113 36 124 -12
19 43 125 95 182 29 32 55 59 58 59 2 0 1 -64 -2 -142z m943 129 c0 -2 -10
-12 -21 -23 -22 -19 -22 -19 -8 4 12 19 29 30 29 19z m-170 -17 c0 -5 -5 -10
-11 -10 -5 0 -7 5 -4 10 3 6 8 10 11 10 2 0 4 -4 4 -10z m110 -10 c0 -5 -5
-10 -11 -10 -5 0 -7 5 -4 10 3 6 8 10 11 10 2 0 4 -4 4 -10z m-73 -47 c-18
-18 -37 -10 -37 17 0 24 21 31 39 13 12 -12 12 -17 -2 -30z m-337 -20 c0 -7 5
-13 10 -13 6 0 10 -6 10 -13 0 -7 9 -19 20 -27 11 -8 20 -21 20 -28 0 -8 6
-12 14 -9 11 4 13 1 9 -10 -4 -10 -2 -14 5 -9 17 10 21 -7 8 -33 -9 -15 -16
-20 -20 -12 -4 6 -2 11 4 11 7 0 7 7 -1 22 -7 14 -14 18 -16 11 -11 -31 -93
95 -90 136 1 21 2 21 14 5 7 -10 13 -24 13 -31z m450 -17 c-8 -8 -14 -7 -21 4
-8 11 -9 9 -4 -10 6 -20 5 -23 -5 -13 -19 18 -5 42 20 36 16 -4 18 -9 10 -17z
m-322 -13 c-2 -10 2 -17 9 -16 7 2 10 -3 7 -11 -3 -8 1 -25 9 -38 8 -13 18
-34 21 -48 6 -20 5 -22 -4 -8 -9 15 -13 15 -37 3 -29 -15 -39 -13 -28 5 4 6
13 9 21 6 9 -3 11 0 7 11 -5 12 -2 15 10 10 15 -6 16 -4 6 14 -6 11 -17 18
-24 15 -7 -2 -19 3 -27 12 -11 15 -11 16 3 4 14 -10 18 -10 22 2 3 7 1 18 -5
24 -6 6 -7 15 -4 21 11 16 17 13 14 -6z m-2058 -42 c0 -24 3 -28 20 -24 33 9
50 -14 50 -68 0 -63 -18 -64 -22 -1 -3 39 -6 47 -23 47 -17 0 -20 -8 -23 -47
-5 -81 -22 -53 -22 37 0 50 4 85 10 85 6 0 10 -13 10 -29z m127 3 c-9 -9 -28
6 -21 18 4 6 10 6 17 -1 6 -6 8 -13 4 -17z m183 -26 l1 -53 24 28 c31 35 49
35 28 -1 -16 -28 -15 -30 6 -60 18 -27 20 -32 6 -32 -8 0 -21 11 -27 25 -13
30 -32 28 -36 -3 -2 -12 -8 -22 -13 -22 -5 0 -9 38 -9 85 0 50 4 85 10 85 6 0
10 -24 10 -52z m-390 17 c0 -8 7 -15 15 -15 8 0 15 -4 15 -10 0 -5 -7 -10 -15
-10 -11 0 -15 -11 -15 -40 0 -29 4 -40 15 -40 8 0 15 -5 15 -11 0 -6 -10 -9
-22 -7 -19 2 -24 10 -26 48 -2 24 -9 48 -15 53 -9 7 -9 10 1 14 6 2 12 11 12
19 0 8 5 14 10 14 6 0 10 -7 10 -15z m210 -75 c0 -33 -4 -60 -10 -60 -6 0 -10
27 -10 60 0 33 4 60 10 60 6 0 10 -27 10 -60z m118 48 c14 -12 17 -108 2 -108
-5 0 -10 20 -10 44 0 49 -9 61 -40 51 -16 -5 -20 -15 -20 -51 0 -24 -4 -44
-10 -44 -6 0 -10 26 -10 58 l0 58 38 1 c20 1 43 -3 50 -9z m1885 -5 c-5 -12
-2 -15 9 -10 10 3 19 0 22 -9 3 -8 2 -13 -2 -10 -4 2 -8 -3 -9 -12 -11 -107
-19 -145 -27 -124 -4 12 -4 32 -1 45 5 15 4 19 -3 12 -6 -5 -12 -23 -15 -40
-3 -26 -4 -25 -6 10 -2 36 -3 38 -12 16 -5 -13 -12 -22 -15 -19 -8 9 18 58 28
52 4 -3 11 2 14 10 3 9 10 13 15 10 14 -8 11 17 -5 48 -13 25 -12 29 11 37 1
1 -1 -7 -4 -16z m40 -60 c-4 -11 -3 -14 5 -9 7 4 12 1 12 -8 0 -9 -4 -16 -10
-16 -5 0 -10 -18 -10 -40 0 -23 -5 -40 -11 -40 -8 0 -9 18 -4 58 4 31 9 60 12
65 8 13 12 7 6 -10z m14 -80 c-3 -10 -5 -4 -5 12 0 17 2 24 5 18 2 -7 2 -21 0
-30z m-1847 -253 c0 -5 -4 -10 -10 -10 -5 0 -10 5 -10 10 0 6 5 10 10 10 6 0
10 -4 10 -10z m120 -10 c0 -13 7 -20 18 -20 10 0 23 -5 30 -12 9 -9 12 -9 12
0 0 7 11 12 25 12 25 0 36 -19 13 -21 -10 0 -10 -2 0 -6 19 -8 14 -40 -8 -46
-23 -6 -39 11 -20 23 8 5 7 9 -4 13 -9 4 -16 1 -16 -6 0 -22 -20 -34 -46 -29
-22 4 -24 9 -24 58 0 30 5 54 10 54 6 0 10 -9 10 -20z m-325 0 c4 -6 -6 -10
-22 -10 l-28 -1 28 -17 c39 -24 33 -56 -10 -60 -23 -2 -33 1 -33 11 0 10 8 13
28 10 l27 -5 -29 24 c-20 17 -27 30 -23 41 7 18 52 23 62 7z m205 -65 c0 -48
-2 -55 -20 -55 -11 0 -20 5 -20 10 0 6 5 10 10 10 6 0 10 17 10 38 0 34 6 52
17 52 2 0 3 -25 3 -55z m-130 25 c0 -14 -7 -20 -22 -21 l-23 -2 23 -4 c32 -6
27 -25 -5 -21 -47 5 -45 68 2 68 18 0 25 -5 25 -20z m78 -2 c3 -14 -4 -18 -25
-19 -23 -1 -24 -2 -5 -6 32 -6 27 -25 -5 -21 -28 3 -40 25 -29 54 8 21 60 14
64 -8z m137 -13 c0 -27 -3 -30 -30 -30 -21 0 -31 5 -33 18 -6 33 6 49 35 45
24 -3 28 -8 28 -33z m795 -450 l0 -85 40 0 c36 0 40 -2 40 -25 0 -24 -2 -25
-65 -25 l-65 0 0 110 0 110 25 0 c25 0 25 -1 25 -85z m148 62 c4 -20 -25 -34
-40 -19 -15 15 -1 44 19 40 10 -2 19 -11 21 -21z m232 -36 c5 -53 5 -53 24
-32 18 19 66 30 66 14 0 -4 -11 -19 -25 -33 l-25 -26 27 -37 c14 -20 24 -39
22 -41 -12 -12 -57 9 -72 32 l-16 27 -1 -26 c0 -20 -6 -28 -25 -31 l-25 -5 0
109 c0 108 0 109 23 106 19 -3 23 -10 27 -57z m400 -47 c0 -103 0 -105 -22
-103 -13 2 -33 -1 -45 -5 -22 -7 -61 7 -75 28 -4 6 -8 27 -8 47 0 49 28 74 75
66 l35 -6 0 40 c0 32 3 39 20 39 19 0 20 -7 20 -106z m137 90 c3 -8 -2 -23
-11 -32 -15 -15 -17 -15 -32 0 -21 21 -11 48 16 48 11 0 23 -7 27 -16z m151
-67 c7 -6 12 -34 12 -73 0 -61 -1 -64 -24 -64 -23 0 -25 4 -28 53 -2 38 -7 52
-18 52 -11 0 -16 -14 -20 -50 -4 -42 -8 -50 -27 -53 -22 -3 -23 0 -23 72 l0
75 43 3 c46 3 65 0 85 -15z m-920 -59 c-3 -65 -5 -73 -23 -73 -18 0 -20 8 -23
73 -3 72 -3 72 23 72 26 0 26 0 23 -72z m149 60 c13 -10 19 -119 7 -130 -3 -3
-14 -4 -24 -1 -15 4 -20 16 -22 51 -2 35 -7 48 -20 50 -15 3 -18 -4 -18 -46 0
-41 -3 -51 -19 -55 -28 -7 -31 -1 -31 73 l0 67 57 1 c32 0 64 -4 70 -10z m295
-5 c10 -9 18 -29 18 -45 0 -27 -2 -28 -45 -28 -27 0 -45 -5 -45 -11 0 -8 12
-10 35 -6 40 7 57 -10 30 -30 -27 -19 -58 -16 -89 8 -33 26 -36 79 -6 109 24
24 77 26 102 3z m326 -55 c-3 -69 -4 -73 -27 -73 -22 0 -23 3 -23 58 0 31 1
64 1 72 1 9 11 15 26 15 26 0 26 -1 23 -72z m239 -60 c-3 -8 -6 -5 -6 6 -1 11
2 17 5 13 3 -3 4 -12 1 -19z m53 5 c0 -6 -9 -11 -20 -10 -11 1 -20 6 -20 12 0
6 9 11 20 11 11 0 20 -6 20 -13z"/>
<path d="M795 2071 c-10 -34 4 -63 28 -59 18 2 22 10 22 38 0 28 -4 36 -22 38
-14 2 -23 -3 -28 -17z"/>
<path d="M410 2075 c-26 -31 13 -82 44 -56 19 16 21 42 4 59 -16 16 -33 15
-48 -3z"/>
<path d="M1010 2075 c-11 -13 -8 -15 20 -15 21 0 30 4 28 13 -7 18 -33 20 -48
2z"/>
<path d="M1132 2038 c-19 -19 -14 -30 10 -26 13 2 24 11 26 21 4 20 -18 23
-36 5z"/>
<path d="M484 1806 c-11 -29 1 -61 23 -64 17 -3 24 3 29 22 3 14 4 33 0 41 -7
19 -45 20 -52 1z"/>
<path d="M1273 1813 c-20 -7 -15 -19 7 -19 11 0 20 4 20 8 0 10 -13 16 -27 11z"/>
<path d="M355 1800 c-9 -29 4 -60 25 -60 10 0 22 9 25 20 9 29 -4 60 -25 60
-10 0 -22 -9 -25 -20z"/>
<path d="M1042 1808 c-28 -28 3 -83 33 -58 8 7 15 20 15 29 0 17 -18 41 -30
41 -3 0 -11 -5 -18 -12z"/>
<path d="M512 1498 c-19 -19 -14 -30 10 -26 13 2 24 11 26 21 4 20 -18 23 -36
5z"/>
<path d="M915 1530 c-3 -11 -3 -29 0 -40 13 -42 62 -9 51 35 -8 31 -42 34 -51
5z"/>
<path d="M1637 990 c-3 -11 -1 -20 4 -20 5 0 9 9 9 20 0 11 -2 20 -4 20 -2 0
-6 -9 -9 -20z"/>
<path d="M2625 1430 c-3 -5 -1 -10 4 -10 6 0 11 5 11 10 0 6 -2 10 -4 10 -3 0
-8 -4 -11 -10z"/>
<path d="M840 825 c0 -9 5 -15 11 -13 6 2 11 8 11 13 0 5 -5 11 -11 13 -6 2
-11 -4 -11 -13z"/>
<path d="M760 825 c0 -9 5 -15 11 -13 6 2 11 8 11 13 0 5 -5 11 -11 13 -6 2
-11 -4 -11 -13z"/>
<path d="M2273 334 c-8 -22 10 -49 32 -49 22 0 40 27 32 49 -8 21 -56 21 -64
0z"/>
<path d="M2127 354 c-14 -14 -6 -24 19 -24 16 0 24 5 22 13 -5 14 -31 21 -41
11z"/>
<path d="M2033 2245 c0 -27 2 -38 4 -22 2 15 2 37 0 50 -2 12 -4 0 -4 -28z"/>
<path d="M1336 2045 c-11 -8 -15 -15 -9 -15 6 0 16 7 23 15 16 19 11 19 -14 0z"/>
<path d="M2054 2033 c-19 -19 -12 -69 12 -93 14 -13 15 -11 9 22 -6 30 -4 38
14 47 22 12 28 2 10 -16 -6 -6 -9 -21 -7 -34 2 -20 9 -24 36 -24 19 -1 32 4
32 12 0 7 -4 13 -9 13 -4 0 -12 19 -17 41 -8 36 -13 42 -36 45 -16 1 -35 -4
-44 -13z"/>
<path d="M1325 2000 c-3 -6 1 -7 9 -4 18 7 21 14 7 14 -6 0 -13 -4 -16 -10z"/>
<path d="M2166 1894 c-9 -22 -8 -24 9 -18 8 4 15 12 15 20 0 19 -16 18 -24 -2z"/>
<path d="M1380 1710 c0 -5 7 -7 15 -4 8 4 15 8 15 10 0 2 -7 4 -15 4 -8 0 -15
-4 -15 -10z"/>
</g>
</svg>
