<?xml version="1.0" encoding="utf-8"?>
<!-- Generator: Adobe Illustrator 16.0.0, SVG Export Plug-In . SVG Version: 6.00 Build 0)  -->
<!DOCTYPE svg PUBLIC "-//W3C//DTD SVG 1.1//EN" "http://www.w3.org/Graphics/SVG/1.1/DTD/svg11.dtd">
<svg version="1.1" id="Layer_1" xmlns="http://www.w3.org/2000/svg" xmlns:xlink="http://www.w3.org/1999/xlink" x="0px" y="0px"
	 width="420px" height="420px" viewBox="0 0 420 420" enable-background="new 0 0 420 420" xml:space="preserve">
<path fill="#0F8B36" d="M210,0C94.02,0,0,94.02,0,210c0,115.979,94.02,210,210,210c115.979,0,210-94.021,210-210
	C420,94.02,325.979,0,210,0z M210,401.709c-105.003,0-190.125-85.121-190.125-190.124S104.997,21.46,210,21.46
	s190.125,85.122,190.125,190.125S315.003,401.709,210,401.709z"/>
<g>
	<path fill="#0F8B36" d="M194,344.557c-67.431-7.919-119.75-65.248-119.75-134.807S126.569,82.862,194,74.943V43.765
		C108.999,51.821,42.5,123.39,42.5,210.5c0,87.11,66.499,158.679,151.5,166.735V344.557z"/>
	<path fill="#0F8B36" d="M226,43.765v31.179c67.431,7.919,119.75,65.249,119.75,134.807c0,69.559-52.319,126.888-119.75,134.807
		v32.679c85.001-8.057,151.5-79.625,151.5-166.735C377.5,123.39,311.001,51.821,226,43.765z"/>
</g>
<g>
	<path fill="#0F8B36" d="M117.537,304.52V140.915c0,0-1.483-24.485,22.63-24.485h58.986V304.52h-23.65l0.556-164.066l-28.659,0.278
		c0,0-6.677-0.278-6.677,5.565c0,5.843-0.557,158.223-0.557,158.223H117.537z"/>
	<path fill="#0F8B36" d="M280.121,116.43h-57.317l-1.112,188.089h24.206l-0.278-94.228l34.502,0.556
		c22.538,0,23.372-24.206,23.372-24.206s0-22.816,0-46.188C303.493,117.081,280.121,116.43,280.121,116.43z M280.399,180.798
		c0,0-0.093,6.399-5.843,6.399c-5.751,0-28.938,0-28.938,0v-46.744h29.772c0,0,5.008-0.835,5.008,5.565
		C280.399,152.417,280.399,180.798,280.399,180.798z"/>
</g>
</svg>
